<?xml version="1.0" encoding="us-ascii" standalone="no"?><svg xmlns="http://www.w3.org/2000/svg" xmlns:xlink="http://www.w3.org/1999/xlink" contentStyleType="text/css" height="442px" preserveAspectRatio="none" style="width:887px;height:442px;background:#FFFFFF;" version="1.1" viewBox="0 0 887 442" width="887px" zoomAndPan="magnify"><defs/><g><!--class DataBaseManager--><g id="elem_DataBaseManager"><rect codeLine="1" fill="#F1F1F1" height="80.5938" id="DataBaseManager" rx="2.5" ry="2.5" style="stroke:#181818;stroke-width:0.5;" width="247" x="126" y="197"/><ellipse cx="180.75" cy="213" fill="#ADD1B2" rx="11" ry="11" style="stroke:#181818;stroke-width:1.0;"/><path d="M183.0938,208.6719 C182.1563,208.2344 181.5625,208.0938 180.6875,208.0938 C178.0625,208.0938 176.0625,210.1719 176.0625,212.8906 L176.0625,214.0156 C176.0625,216.5938 178.1719,218.4844 181.0625,218.4844 C182.2813,218.4844 183.4375,218.1875 184.1875,217.6406 C184.7656,217.2344 185.0938,216.7813 185.0938,216.3906 C185.0938,215.9375 184.7031,215.5469 184.2344,215.5469 C184.0156,215.5469 183.8125,215.625 183.625,215.8125 C183.1719,216.2969 183.1719,216.2969 182.9844,216.3906 C182.5625,216.6563 181.875,216.7813 181.1094,216.7813 C179.0625,216.7813 177.7656,215.6875 177.7656,213.9844 L177.7656,212.8906 C177.7656,211.1094 179.0156,209.7969 180.75,209.7969 C181.3281,209.7969 181.9375,209.9531 182.4063,210.2031 C182.8906,210.4844 183.0625,210.7031 183.1563,211.1094 C183.2188,211.5156 183.25,211.6406 183.3906,211.7656 C183.5313,211.9063 183.7656,212.0156 183.9844,212.0156 C184.25,212.0156 184.5156,211.875 184.6875,211.6563 C184.7969,211.5 184.8281,211.3125 184.8281,210.8906 L184.8281,209.4688 C184.8281,209.0313 184.8125,208.9063 184.7188,208.75 C184.5625,208.4844 184.2813,208.3438 183.9844,208.3438 C183.6875,208.3438 183.4844,208.4375 183.2656,208.75 L183.0938,208.6719 Z " fill="#000000"/><text fill="#000000" font-family="sans-serif" font-size="14" lengthAdjust="spacing" textLength="129" x="201.25" y="217.8467">DataBaseManager</text><line style="stroke:#181818;stroke-width:0.5;" x1="127" x2="372" y1="229" y2="229"/><rect fill="none" height="6" style="stroke:#C82930;stroke-width:1.0;" width="6" x="134" y="239.6484"/><text fill="#000000" font-family="sans-serif" font-size="14" lengthAdjust="spacing" textLength="159" x="146" y="245.9951">connection_string: str</text><line style="stroke:#181818;stroke-width:0.5;" x1="127" x2="372" y1="253.2969" y2="253.2969"/><ellipse cx="137" cy="266.9453" fill="#84BE84" rx="3" ry="3" style="stroke:#038048;stroke-width:1.0;"/><text fill="#000000" font-family="sans-serif" font-size="14" lengthAdjust="spacing" textLength="221" x="146" y="270.292">__init__(connection_string: str)</text></g><!--class Authenticator--><g id="elem_Authenticator"><rect codeLine="6" fill="#F1F1F1" height="80.5938" id="Authenticator" rx="2.5" ry="2.5" style="stroke:#181818;stroke-width:0.5;" width="329" x="207" y="355"/><ellipse cx="316.75" cy="371" fill="#ADD1B2" rx="11" ry="11" style="stroke:#181818;stroke-width:1.0;"/><path d="M319.0938,366.6719 C318.1563,366.2344 317.5625,366.0938 316.6875,366.0938 C314.0625,366.0938 312.0625,368.1719 312.0625,370.8906 L312.0625,372.0156 C312.0625,374.5938 314.1719,376.4844 317.0625,376.4844 C318.2813,376.4844 319.4375,376.1875 320.1875,375.6406 C320.7656,375.2344 321.0938,374.7813 321.0938,374.3906 C321.0938,373.9375 320.7031,373.5469 320.2344,373.5469 C320.0156,373.5469 319.8125,373.625 319.625,373.8125 C319.1719,374.2969 319.1719,374.2969 318.9844,374.3906 C318.5625,374.6563 317.875,374.7813 317.1094,374.7813 C315.0625,374.7813 313.7656,373.6875 313.7656,371.9844 L313.7656,370.8906 C313.7656,369.1094 315.0156,367.7969 316.75,367.7969 C317.3281,367.7969 317.9375,367.9531 318.4063,368.2031 C318.8906,368.4844 319.0625,368.7031 319.1563,369.1094 C319.2188,369.5156 319.25,369.6406 319.3906,369.7656 C319.5313,369.9063 319.7656,370.0156 319.9844,370.0156 C320.25,370.0156 320.5156,369.875 320.6875,369.6563 C320.7969,369.5 320.8281,369.3125 320.8281,368.8906 L320.8281,367.4688 C320.8281,367.0313 320.8125,366.9063 320.7188,366.75 C320.5625,366.4844 320.2813,366.3438 319.9844,366.3438 C319.6875,366.3438 319.4844,366.4375 319.2656,366.75 L319.0938,366.6719 Z " fill="#000000"/><text fill="#000000" font-family="sans-serif" font-size="14" lengthAdjust="spacing" textLength="101" x="337.25" y="375.8467">Authenticator</text><line style="stroke:#181818;stroke-width:0.5;" x1="208" x2="535" y1="387" y2="387"/><rect fill="none" height="6" style="stroke:#C82930;stroke-width:1.0;" width="6" x="215" y="397.6484"/><text fill="#000000" font-family="sans-serif" font-size="14" lengthAdjust="spacing" textLength="241" x="227" y="403.9951">user_database: DataBaseManager</text><line style="stroke:#181818;stroke-width:0.5;" x1="208" x2="535" y1="411.2969" y2="411.2969"/><ellipse cx="218" cy="424.9453" fill="#84BE84" rx="3" ry="3" style="stroke:#038048;stroke-width:1.0;"/><text fill="#000000" font-family="sans-serif" font-size="14" lengthAdjust="spacing" textLength="303" x="227" y="428.292">__init__(user_database: DataBaseManager)</text></g><!--class PaymentProcessor--><g id="elem_PaymentProcessor"><rect codeLine="11" fill="#F1F1F1" height="80.5938" id="PaymentProcessor" rx="2.5" ry="2.5" style="stroke:#181818;stroke-width:0.5;" width="172" x="548.5" y="197"/><ellipse cx="566.2" cy="213" fill="#ADD1B2" rx="11" ry="11" style="stroke:#181818;stroke-width:1.0;"/><path d="M568.5438,208.6719 C567.6063,208.2344 567.0125,208.0938 566.1375,208.0938 C563.5125,208.0938 561.5125,210.1719 561.5125,212.8906 L561.5125,214.0156 C561.5125,216.5938 563.6219,218.4844 566.5125,218.4844 C567.7313,218.4844 568.8875,218.1875 569.6375,217.6406 C570.2156,217.2344 570.5438,216.7813 570.5438,216.3906 C570.5438,215.9375 570.1531,215.5469 569.6844,215.5469 C569.4656,215.5469 569.2625,215.625 569.075,215.8125 C568.6219,216.2969 568.6219,216.2969 568.4344,216.3906 C568.0125,216.6563 567.325,216.7813 566.5594,216.7813 C564.5125,216.7813 563.2156,215.6875 563.2156,213.9844 L563.2156,212.8906 C563.2156,211.1094 564.4656,209.7969 566.2,209.7969 C566.7781,209.7969 567.3875,209.9531 567.8563,210.2031 C568.3406,210.4844 568.5125,210.7031 568.6063,211.1094 C568.6688,211.5156 568.7,211.6406 568.8406,211.7656 C568.9813,211.9063 569.2156,212.0156 569.4344,212.0156 C569.7,212.0156 569.9656,211.875 570.1375,211.6563 C570.2469,211.5 570.2781,211.3125 570.2781,210.8906 L570.2781,209.4688 C570.2781,209.0313 570.2625,208.9063 570.1688,208.75 C570.0125,208.4844 569.7313,208.3438 569.4344,208.3438 C569.1375,208.3438 568.9344,208.4375 568.7156,208.75 L568.5438,208.6719 Z " fill="#000000"/><text fill="#000000" font-family="sans-serif" font-size="14" lengthAdjust="spacing" textLength="134" x="580.8" y="217.8467">PaymentProcessor</text><line style="stroke:#181818;stroke-width:0.5;" x1="549.5" x2="719.5" y1="229" y2="229"/><rect fill="none" height="6" style="stroke:#C82930;stroke-width:1.0;" width="6" x="556.5" y="239.6484"/><text fill="#000000" font-family="sans-serif" font-size="14" lengthAdjust="spacing" textLength="84" x="568.5" y="245.9951">api_key: str</text><line style="stroke:#181818;stroke-width:0.5;" x1="549.5" x2="719.5" y1="253.2969" y2="253.2969"/><ellipse cx="559.5" cy="266.9453" fill="#84BE84" rx="3" ry="3" style="stroke:#038048;stroke-width:1.0;"/><text fill="#000000" font-family="sans-serif" font-size="14" lengthAdjust="spacing" textLength="146" x="568.5" y="270.292">__init__(api_key: str)</text></g><!--class OrderManager--><g id="elem_OrderManager"><rect codeLine="16" fill="#F1F1F1" height="113.1875" id="OrderManager" rx="2.5" ry="2.5" style="stroke:#181818;stroke-width:0.5;" width="873" x="7" y="7"/><ellipse cx="388.25" cy="23" fill="#ADD1B2" rx="11" ry="11" style="stroke:#181818;stroke-width:1.0;"/><path d="M390.5938,18.6719 C389.6563,18.2344 389.0625,18.0938 388.1875,18.0938 C385.5625,18.0938 383.5625,20.1719 383.5625,22.8906 L383.5625,24.0156 C383.5625,26.5938 385.6719,28.4844 388.5625,28.4844 C389.7813,28.4844 390.9375,28.1875 391.6875,27.6406 C392.2656,27.2344 392.5938,26.7813 392.5938,26.3906 C392.5938,25.9375 392.2031,25.5469 391.7344,25.5469 C391.5156,25.5469 391.3125,25.625 391.125,25.8125 C390.6719,26.2969 390.6719,26.2969 390.4844,26.3906 C390.0625,26.6563 389.375,26.7813 388.6094,26.7813 C386.5625,26.7813 385.2656,25.6875 385.2656,23.9844 L385.2656,22.8906 C385.2656,21.1094 386.5156,19.7969 388.25,19.7969 C388.8281,19.7969 389.4375,19.9531 389.9063,20.2031 C390.3906,20.4844 390.5625,20.7031 390.6563,21.1094 C390.7188,21.5156 390.75,21.6406 390.8906,21.7656 C391.0313,21.9063 391.2656,22.0156 391.4844,22.0156 C391.75,22.0156 392.0156,21.875 392.1875,21.6563 C392.2969,21.5 392.3281,21.3125 392.3281,20.8906 L392.3281,19.4688 C392.3281,19.0313 392.3125,18.9063 392.2188,18.75 C392.0625,18.4844 391.7813,18.3438 391.4844,18.3438 C391.1875,18.3438 390.9844,18.4375 390.7656,18.75 L390.5938,18.6719 Z " fill="#000000"/><text fill="#000000" font-family="sans-serif" font-size="14" lengthAdjust="spacing" textLength="102" x="408.75" y="27.8467">OrderManager</text><line style="stroke:#181818;stroke-width:0.5;" x1="8" x2="879" y1="39" y2="39"/><rect fill="none" height="6" style="stroke:#C82930;stroke-width:1.0;" width="6" x="15" y="49.6484"/><text fill="#000000" font-family="sans-serif" font-size="14" lengthAdjust="spacing" textLength="274" x="27" y="55.9951">database_manager: DataBaseManager</text><rect fill="none" height="6" style="stroke:#C82930;stroke-width:1.0;" width="6" x="15" y="65.9453"/><text fill="#000000" font-family="sans-serif" font-size="14" lengthAdjust="spacing" textLength="209" x="27" y="72.292">authenticator: Authenticator</text><rect fill="none" height="6" style="stroke:#C82930;stroke-width:1.0;" width="6" x="15" y="82.2422"/><text fill="#000000" font-family="sans-serif" font-size="14" lengthAdjust="spacing" textLength="286" x="27" y="88.5889">payment_processor: PaymentProcessor</text><line style="stroke:#181818;stroke-width:0.5;" x1="8" x2="879" y1="95.8906" y2="95.8906"/><ellipse cx="18" cy="109.5391" fill="#84BE84" rx="3" ry="3" style="stroke:#038048;stroke-width:1.0;"/><text fill="#000000" font-family="sans-serif" font-size="14" lengthAdjust="spacing" textLength="847" x="27" y="112.8857">__init__(database_manager: DataBaseManager, authenticator: Authenticator, payment_processor: PaymentProcessor)</text></g><!--link DataBaseManager to Authenticator--><g id="link_DataBaseManager_Authenticator"><path codeLine="23" d="M280.601,278.269 C298.957,301.74 318.4138,326.6197 336.7588,350.0773 " fill="none" id="DataBaseManager-to-Authenticator" style="stroke:#181818;stroke-width:1.0;"/><polygon fill="#181818" points="340.455,354.8036,338.0616,345.25,337.3748,350.865,331.7598,350.1783,340.455,354.8036" style="stroke:#181818;stroke-width:1.0;"/><polygon fill="#000000" points="322.5802,320.505,319.3231,311.5695,314.693,315.1905,322.5802,320.505" style="stroke:#000000;stroke-width:1.0;"/><text fill="#000000" font-family="sans-serif" font-size="13" lengthAdjust="spacing" textLength="55" x="328.5" y="321.0669">contiene</text></g><!--link OrderManager to DataBaseManager--><g id="link_OrderManager_DataBaseManager"><path codeLine="24" d="M380.782,120.106 C352.552,145.134 324.3675,170.1225 298.6775,192.8995 " fill="none" id="OrderManager-to-DataBaseManager" style="stroke:#181818;stroke-width:1.0;"/><polygon fill="#181818" points="294.188,196.88,303.5759,193.9023,297.9293,193.5629,298.2687,187.9163,294.188,196.88" style="stroke:#181818;stroke-width:1.0;"/><polygon fill="#000000" points="347.7587,161.8834,356.4765,158.082,352.5771,153.6838,347.7587,161.8834" style="stroke:#000000;stroke-width:1.0;"/><text fill="#000000" font-family="sans-serif" font-size="13" lengthAdjust="spacing" textLength="55" x="360.5" y="163.0669">contiene</text></g><!--link OrderManager to Authenticator--><g id="link_OrderManager_Authenticator"><path codeLine="25" d="M434.253,120.245 C425.07,173.234 409.881,255.004 392.5,325 C390.07,334.787 388.8311,339.4964 385.9071,349.2492 " fill="none" id="OrderManager-to-Authenticator" style="stroke:#181818;stroke-width:1.0;"/><polygon fill="#181818" points="384.184,354.9965,390.6001,347.5243,385.6199,350.2071,382.9371,345.2269,384.184,354.9965" style="stroke:#181818;stroke-width:1.0;"/><polygon fill="#000000" points="424.4672,242.4586,429.2111,234.2156,423.46,233.0015,424.4672,242.4586" style="stroke:#000000;stroke-width:1.0;"/><text fill="#000000" font-family="sans-serif" font-size="13" lengthAdjust="spacing" textLength="55" x="434.5" y="242.0669">contiene</text></g><!--link OrderManager to PaymentProcessor--><g id="link_OrderManager_PaymentProcessor"><path codeLine="26" d="M505.248,120.106 C533.041,145.134 560.7525,170.0878 586.0445,192.8648 " fill="none" id="OrderManager-to-PaymentProcessor" style="stroke:#181818;stroke-width:1.0;"/><polygon fill="#181818" points="590.503,196.88,586.492,187.8849,586.7876,193.534,581.1384,193.8296,590.503,196.88" style="stroke:#181818;stroke-width:1.0;"/><polygon fill="#000000" points="565.2155,161.9123,560.4608,153.6756,556.5274,158.0434,565.2155,161.9123" style="stroke:#000000;stroke-width:1.0;"/><text fill="#000000" font-family="sans-serif" font-size="13" lengthAdjust="spacing" textLength="55" x="570.5" y="163.0669">contiene</text></g><!--SRC=[bP913e8m44NtFKMN6k42NP1et1gzmMGi4soKGjgo8CQxMo2O5WZggaddzxy_CvKFj9OVqU41BPrGOq66FnddAPULrYITgZHOPvGk1FUdB-quWDBA0MoMDLlsOapsrll6tKWx9T5Let5ZoK3kcLVF55Dw35ZN1g0BjgK7NKmboTeF2si5TseNeeULmETiSZBn84OybCFrKcHF2ZiLSUEze1uIGZr65BFGSSAlt6GLcln2x3kVxZzDiydYHFSRd29DF6FHY3hjzFsw-X_dsLP3-Hi0]--></g></svg>