<?xml version="1.0" encoding="us-ascii" standalone="no"?><svg xmlns="http://www.w3.org/2000/svg" xmlns:xlink="http://www.w3.org/1999/xlink" contentStyleType="text/css" height="540px" preserveAspectRatio="none" style="width:518px;height:540px;background:#FFFFFF;" version="1.1" viewBox="0 0 518 540" width="518px" zoomAndPan="magnify"><defs/><g><!--class Matriz--><g id="elem_Matriz"><rect codeLine="1" fill="#F1F1F1" height="80.5938" id="Matriz" rx="2.5" ry="2.5" style="stroke:#181818;stroke-width:0.5;" width="196" x="193.5" y="279"/><ellipse cx="264.75" cy="295" fill="#ADD1B2" rx="11" ry="11" style="stroke:#181818;stroke-width:1.0;"/><path d="M267.0938,290.6719 C266.1563,290.2344 265.5625,290.0938 264.6875,290.0938 C262.0625,290.0938 260.0625,292.1719 260.0625,294.8906 L260.0625,296.0156 C260.0625,298.5938 262.1719,300.4844 265.0625,300.4844 C266.2813,300.4844 267.4375,300.1875 268.1875,299.6406 C268.7656,299.2344 269.0938,298.7813 269.0938,298.3906 C269.0938,297.9375 268.7031,297.5469 268.2344,297.5469 C268.0156,297.5469 267.8125,297.625 267.625,297.8125 C267.1719,298.2969 267.1719,298.2969 266.9844,298.3906 C266.5625,298.6563 265.875,298.7813 265.1094,298.7813 C263.0625,298.7813 261.7656,297.6875 261.7656,295.9844 L261.7656,294.8906 C261.7656,293.1094 263.0156,291.7969 264.75,291.7969 C265.3281,291.7969 265.9375,291.9531 266.4063,292.2031 C266.8906,292.4844 267.0625,292.7031 267.1563,293.1094 C267.2188,293.5156 267.25,293.6406 267.3906,293.7656 C267.5313,293.9063 267.7656,294.0156 267.9844,294.0156 C268.25,294.0156 268.5156,293.875 268.6875,293.6563 C268.7969,293.5 268.8281,293.3125 268.8281,292.8906 L268.8281,291.4688 C268.8281,291.0313 268.8125,290.9063 268.7188,290.75 C268.5625,290.4844 268.2813,290.3438 267.9844,290.3438 C267.6875,290.3438 267.4844,290.4375 267.2656,290.75 L267.0938,290.6719 Z " fill="#000000"/><text fill="#000000" font-family="sans-serif" font-size="14" lengthAdjust="spacing" textLength="45" x="285.25" y="299.8467">Matriz</text><line style="stroke:#181818;stroke-width:0.5;" x1="194.5" x2="388.5" y1="311" y2="311"/><rect fill="none" height="6" style="stroke:#C82930;stroke-width:1.0;" width="6" x="201.5" y="321.6484"/><text fill="#000000" font-family="sans-serif" font-size="14" lengthAdjust="spacing" textLength="108" x="213.5" y="327.9951">elementos: list</text><line style="stroke:#181818;stroke-width:0.5;" x1="194.5" x2="388.5" y1="335.2969" y2="335.2969"/><ellipse cx="204.5" cy="348.9453" fill="#84BE84" rx="3" ry="3" style="stroke:#038048;stroke-width:1.0;"/><text fill="#000000" font-family="sans-serif" font-size="14" lengthAdjust="spacing" textLength="170" x="213.5" y="352.292">__init__(elementos: list)</text></g><!--class Transpuesta--><g id="elem_Transpuesta"><rect codeLine="6" fill="#F1F1F1" height="96.8906" id="Transpuesta" rx="2.5" ry="2.5" style="stroke:#181818;stroke-width:0.5;" width="237" x="7" y="437"/><ellipse cx="77.25" cy="453" fill="#ADD1B2" rx="11" ry="11" style="stroke:#181818;stroke-width:1.0;"/><path d="M79.5938,448.6719 C78.6563,448.2344 78.0625,448.0938 77.1875,448.0938 C74.5625,448.0938 72.5625,450.1719 72.5625,452.8906 L72.5625,454.0156 C72.5625,456.5938 74.6719,458.4844 77.5625,458.4844 C78.7813,458.4844 79.9375,458.1875 80.6875,457.6406 C81.2656,457.2344 81.5938,456.7813 81.5938,456.3906 C81.5938,455.9375 81.2031,455.5469 80.7344,455.5469 C80.5156,455.5469 80.3125,455.625 80.125,455.8125 C79.6719,456.2969 79.6719,456.2969 79.4844,456.3906 C79.0625,456.6563 78.375,456.7813 77.6094,456.7813 C75.5625,456.7813 74.2656,455.6875 74.2656,453.9844 L74.2656,452.8906 C74.2656,451.1094 75.5156,449.7969 77.25,449.7969 C77.8281,449.7969 78.4375,449.9531 78.9063,450.2031 C79.3906,450.4844 79.5625,450.7031 79.6563,451.1094 C79.7188,451.5156 79.75,451.6406 79.8906,451.7656 C80.0313,451.9063 80.2656,452.0156 80.4844,452.0156 C80.75,452.0156 81.0156,451.875 81.1875,451.6563 C81.2969,451.5 81.3281,451.3125 81.3281,450.8906 L81.3281,449.4688 C81.3281,449.0313 81.3125,448.9063 81.2188,448.75 C81.0625,448.4844 80.7813,448.3438 80.4844,448.3438 C80.1875,448.3438 79.9844,448.4375 79.7656,448.75 L79.5938,448.6719 Z " fill="#000000"/><text fill="#000000" font-family="sans-serif" font-size="14" lengthAdjust="spacing" textLength="88" x="97.75" y="457.8467">Transpuesta</text><line style="stroke:#181818;stroke-width:0.5;" x1="8" x2="243" y1="469" y2="469"/><rect fill="none" height="6" style="stroke:#C82930;stroke-width:1.0;" width="6" x="15" y="479.6484"/><text fill="#000000" font-family="sans-serif" font-size="14" lengthAdjust="spacing" textLength="101" x="27" y="485.9951">matriz: Matriz</text><line style="stroke:#181818;stroke-width:0.5;" x1="8" x2="243" y1="493.2969" y2="493.2969"/><ellipse cx="18" cy="506.9453" fill="#84BE84" rx="3" ry="3" style="stroke:#038048;stroke-width:1.0;"/><text fill="#000000" font-family="sans-serif" font-size="14" lengthAdjust="spacing" textLength="163" x="27" y="510.292">__init__(matriz: Matriz)</text><ellipse cx="18" cy="523.2422" fill="#84BE84" rx="3" ry="3" style="stroke:#038048;stroke-width:1.0;"/><text fill="#000000" font-family="sans-serif" font-size="14" lengthAdjust="spacing" textLength="211" x="27" y="526.5889">calcular_transpuesta(): Matriz</text></g><!--class Imprimir--><g id="elem_Imprimir"><rect codeLine="12" fill="#F1F1F1" height="96.8906" id="Imprimir" rx="2.5" ry="2.5" style="stroke:#181818;stroke-width:0.5;" width="189" x="322" y="437"/><ellipse cx="381.25" cy="453" fill="#ADD1B2" rx="11" ry="11" style="stroke:#181818;stroke-width:1.0;"/><path d="M383.5938,448.6719 C382.6563,448.2344 382.0625,448.0938 381.1875,448.0938 C378.5625,448.0938 376.5625,450.1719 376.5625,452.8906 L376.5625,454.0156 C376.5625,456.5938 378.6719,458.4844 381.5625,458.4844 C382.7813,458.4844 383.9375,458.1875 384.6875,457.6406 C385.2656,457.2344 385.5938,456.7813 385.5938,456.3906 C385.5938,455.9375 385.2031,455.5469 384.7344,455.5469 C384.5156,455.5469 384.3125,455.625 384.125,455.8125 C383.6719,456.2969 383.6719,456.2969 383.4844,456.3906 C383.0625,456.6563 382.375,456.7813 381.6094,456.7813 C379.5625,456.7813 378.2656,455.6875 378.2656,453.9844 L378.2656,452.8906 C378.2656,451.1094 379.5156,449.7969 381.25,449.7969 C381.8281,449.7969 382.4375,449.9531 382.9063,450.2031 C383.3906,450.4844 383.5625,450.7031 383.6563,451.1094 C383.7188,451.5156 383.75,451.6406 383.8906,451.7656 C384.0313,451.9063 384.2656,452.0156 384.4844,452.0156 C384.75,452.0156 385.0156,451.875 385.1875,451.6563 C385.2969,451.5 385.3281,451.3125 385.3281,450.8906 L385.3281,449.4688 C385.3281,449.0313 385.3125,448.9063 385.2188,448.75 C385.0625,448.4844 384.7813,448.3438 384.4844,448.3438 C384.1875,448.3438 383.9844,448.4375 383.7656,448.75 L383.5938,448.6719 Z " fill="#000000"/><text fill="#000000" font-family="sans-serif" font-size="14" lengthAdjust="spacing" textLength="62" x="401.75" y="457.8467">Imprimir</text><line style="stroke:#181818;stroke-width:0.5;" x1="323" x2="510" y1="469" y2="469"/><rect fill="none" height="6" style="stroke:#C82930;stroke-width:1.0;" width="6" x="330" y="479.6484"/><text fill="#000000" font-family="sans-serif" font-size="14" lengthAdjust="spacing" textLength="101" x="342" y="485.9951">matriz: Matriz</text><line style="stroke:#181818;stroke-width:0.5;" x1="323" x2="510" y1="493.2969" y2="493.2969"/><ellipse cx="333" cy="506.9453" fill="#84BE84" rx="3" ry="3" style="stroke:#038048;stroke-width:1.0;"/><text fill="#000000" font-family="sans-serif" font-size="14" lengthAdjust="spacing" textLength="163" x="342" y="510.292">__init__(matriz: Matriz)</text><ellipse cx="333" cy="523.2422" fill="#84BE84" rx="3" ry="3" style="stroke:#038048;stroke-width:1.0;"/><text fill="#000000" font-family="sans-serif" font-size="14" lengthAdjust="spacing" textLength="111" x="342" y="526.5889">imprimir(): void</text></g><!--class Lanzador--><g id="elem_Lanzador"><rect codeLine="18" fill="#F1F1F1" height="194.6719" id="Lanzador" rx="2.5" ry="2.5" style="stroke:#181818;stroke-width:0.5;" width="209" x="187" y="7"/><ellipse cx="254.75" cy="23" fill="#ADD1B2" rx="11" ry="11" style="stroke:#181818;stroke-width:1.0;"/><path d="M257.0938,18.6719 C256.1563,18.2344 255.5625,18.0938 254.6875,18.0938 C252.0625,18.0938 250.0625,20.1719 250.0625,22.8906 L250.0625,24.0156 C250.0625,26.5938 252.1719,28.4844 255.0625,28.4844 C256.2813,28.4844 257.4375,28.1875 258.1875,27.6406 C258.7656,27.2344 259.0938,26.7813 259.0938,26.3906 C259.0938,25.9375 258.7031,25.5469 258.2344,25.5469 C258.0156,25.5469 257.8125,25.625 257.625,25.8125 C257.1719,26.2969 257.1719,26.2969 256.9844,26.3906 C256.5625,26.6563 255.875,26.7813 255.1094,26.7813 C253.0625,26.7813 251.7656,25.6875 251.7656,23.9844 L251.7656,22.8906 C251.7656,21.1094 253.0156,19.7969 254.75,19.7969 C255.3281,19.7969 255.9375,19.9531 256.4063,20.2031 C256.8906,20.4844 257.0625,20.7031 257.1563,21.1094 C257.2188,21.5156 257.25,21.6406 257.3906,21.7656 C257.5313,21.9063 257.7656,22.0156 257.9844,22.0156 C258.25,22.0156 258.5156,21.875 258.6875,21.6563 C258.7969,21.5 258.8281,21.3125 258.8281,20.8906 L258.8281,19.4688 C258.8281,19.0313 258.8125,18.9063 258.7188,18.75 C258.5625,18.4844 258.2813,18.3438 257.9844,18.3438 C257.6875,18.3438 257.4844,18.4375 257.2656,18.75 L257.0938,18.6719 Z " fill="#000000"/><text fill="#000000" font-family="sans-serif" font-size="14" lengthAdjust="spacing" textLength="65" x="275.25" y="27.8467">Lanzador</text><line style="stroke:#181818;stroke-width:0.5;" x1="188" x2="395" y1="39" y2="39"/><rect fill="none" height="6" style="stroke:#C82930;stroke-width:1.0;" width="6" x="195" y="49.6484"/><text fill="#000000" font-family="sans-serif" font-size="14" lengthAdjust="spacing" textLength="108" x="207" y="55.9951">elementos: list</text><rect fill="none" height="6" style="stroke:#C82930;stroke-width:1.0;" width="6" x="195" y="65.9453"/><text fill="#000000" font-family="sans-serif" font-size="14" lengthAdjust="spacing" textLength="127" x="207" y="72.292">cantidad_filas: int</text><rect fill="none" height="6" style="stroke:#C82930;stroke-width:1.0;" width="6" x="195" y="82.2422"/><text fill="#000000" font-family="sans-serif" font-size="14" lengthAdjust="spacing" textLength="165" x="207" y="88.5889">cantidad_columnas: int</text><rect fill="none" height="6" style="stroke:#C82930;stroke-width:1.0;" width="6" x="195" y="98.5391"/><text fill="#000000" font-family="sans-serif" font-size="14" lengthAdjust="spacing" textLength="101" x="207" y="104.8857">matriz: Matriz</text><rect fill="none" height="6" style="stroke:#C82930;stroke-width:1.0;" width="6" x="195" y="114.8359"/><text fill="#000000" font-family="sans-serif" font-size="14" lengthAdjust="spacing" textLength="183" x="207" y="121.1826">transpuesta: Transpuesta</text><rect fill="none" height="6" style="stroke:#C82930;stroke-width:1.0;" width="6" x="195" y="131.1328"/><text fill="#000000" font-family="sans-serif" font-size="14" lengthAdjust="spacing" textLength="133" x="207" y="137.4795">imprimir: Imprimir</text><line style="stroke:#181818;stroke-width:0.5;" x1="188" x2="395" y1="144.7813" y2="144.7813"/><ellipse cx="198" cy="158.4297" fill="#84BE84" rx="3" ry="3" style="stroke:#038048;stroke-width:1.0;"/><text fill="#000000" font-family="sans-serif" font-size="14" lengthAdjust="spacing" textLength="62" x="207" y="161.7764">__init__()</text><ellipse cx="198" cy="174.7266" fill="#84BE84" rx="3" ry="3" style="stroke:#038048;stroke-width:1.0;"/><text fill="#000000" font-family="sans-serif" font-size="14" lengthAdjust="spacing" textLength="140" x="207" y="178.0732">crear_matriz(): void</text><ellipse cx="198" cy="191.0234" fill="#84BE84" rx="3" ry="3" style="stroke:#038048;stroke-width:1.0;"/><text fill="#000000" font-family="sans-serif" font-size="14" lengthAdjust="spacing" textLength="92" x="207" y="194.3701">lanzar(): void</text></g><!--link Matriz to Transpuesta--><g id="link_Matriz_Transpuesta"><path codeLine="30" d="M251.316,360.2 C227.903,383.33 202.5003,408.4282 177.8523,432.7788 " fill="none" id="Matriz-to-Transpuesta" style="stroke:#181818;stroke-width:1.0;"/><polygon fill="#181818" points="173.584,436.9956,182.7977,433.5159,177.1409,433.4816,177.1753,427.8248,173.584,436.9956" style="stroke:#181818;stroke-width:1.0;"/><polygon fill="#000000" points="218.9431,402.0805,227.4431,397.8142,223.3121,393.6328,218.9431,402.0805" style="stroke:#000000;stroke-width:1.0;"/><text fill="#000000" font-family="sans-serif" font-size="13" lengthAdjust="spacing" textLength="55" x="231.5" y="403.0669">contiene</text><text fill="#000000" font-family="sans-serif" font-size="13" lengthAdjust="spacing" textLength="8" x="172.0588" y="425.8551">1</text></g><!--link Matriz to Imprimir--><g id="link_Matriz_Imprimir"><path codeLine="31" d="M321.759,360.2 C339.389,383.33 358.0949,407.8731 376.6549,432.2237 " fill="none" id="Matriz-to-Imprimir" style="stroke:#181818;stroke-width:1.0;"/><polygon fill="#181818" points="380.292,436.9956,378.0176,427.413,377.261,433.019,371.655,432.2625,380.292,436.9956" style="stroke:#181818;stroke-width:1.0;"/><polygon fill="#000000" points="361.5309,402.543,358.3853,393.5677,353.7105,397.1308,361.5309,402.543" style="stroke:#000000;stroke-width:1.0;"/><text fill="#000000" font-family="sans-serif" font-size="13" lengthAdjust="spacing" textLength="55" x="367.5" y="403.0669">contiene</text><text fill="#000000" font-family="sans-serif" font-size="13" lengthAdjust="spacing" textLength="8" x="366.3864" y="425.8551">1</text></g><!--link Lanzador to Matriz--><g id="link_Lanzador_Matriz"><path codeLine="32" d="M291.5,202.029 C291.5,229.106 291.5,251.052 291.5,272.78 " fill="none" id="Lanzador-to-Matriz" style="stroke:#181818;stroke-width:1.0;"/><polygon fill="#181818" points="291.5,278.78,295.5,269.78,291.5,273.78,287.5,269.78,291.5,278.78" style="stroke:#181818;stroke-width:1.0;"/><polygon fill="#000000" points="296.5,245.5664,299.4389,236.5213,293.5611,236.5213,296.5,245.5664" style="stroke:#000000;stroke-width:1.0;"/><text fill="#000000" font-family="sans-serif" font-size="13" lengthAdjust="spacing" textLength="55" x="305.5" y="245.0669">contiene</text></g><!--link Lanzador to Transpuesta--><g id="link_Lanzador_Transpuesta"><path codeLine="33" d="M186.675,176.939 C154.781,204.696 123.651,239.403 106.5,279 C84.5701,329.632 94.2252,387.9516 106.7349,430.9785 " fill="none" id="Lanzador-to-Transpuesta" style="stroke:#181818;stroke-width:1.0;"/><polygon fill="#181818" points="108.41,436.7399,109.7383,426.981,107.0141,431.9387,102.0564,429.2145,108.41,436.7399" style="stroke:#181818;stroke-width:1.0;"/><polygon fill="#000000" points="109.9992,324.3358,115.5176,316.59,109.9108,314.8257,109.9992,324.3358" style="stroke:#000000;stroke-width:1.0;"/><text fill="#000000" font-family="sans-serif" font-size="13" lengthAdjust="spacing" textLength="55" x="120.5" y="324.0669">contiene</text></g><!--link Lanzador to Imprimir--><g id="link_Lanzador_Imprimir"><path codeLine="34" d="M365.45,202.297 C381.192,226.374 396.394,252.814 407.5,279 C430.1,332.286 437.024,349.384 431.5,407 C430.571,416.686 430.0771,421.0567 428.2971,430.8486 " fill="none" id="Lanzador-to-Imprimir" style="stroke:#181818;stroke-width:1.0;"/><polygon fill="#181818" points="427.224,436.7519,432.7692,428.6124,428.1183,431.8325,424.8982,427.1816,427.224,436.7519" style="stroke:#181818;stroke-width:1.0;"/><polygon fill="#000000" points="438.8257,324.3875,439.2612,314.8869,433.5937,316.4453,438.8257,324.3875" style="stroke:#000000;stroke-width:1.0;"/><text fill="#000000" font-family="sans-serif" font-size="13" lengthAdjust="spacing" textLength="55" x="446.5" y="324.0669">contiene</text></g><!--SRC=[dP4_3y8W4CNtVegBaurXS6LmDz7DdLme9fVmnm1rqFZTfHMnLBkuyjxzxjv3QWm1ZXWztU3U031GMXbbemiSD8MOtZOW15cAGgndOjiycaQEZ9D76owz2X4po8nKdkarfzRQKPIePQ_HY_X1hTioNpRjpSMJ8V_d6ihZ0_hggFk03sXls3c_M0HBDzf87NRYJ6c40zdPktIwDtOgVTt7O1AGJuiRnVTzl0IjC-Mol4fDlTWboI3e8KGLBlykOpjORLVLHt6GBXskh8BTt5Tghaobey6M9vODYxigryzDJm00]--></g></svg>